PathFileType	4	(X/Y/Z)	D:\Research_projects\MuscleProsody\BulkSports2Dtrack\RetrackedSports2D\p1_sample60_cam1\p1_sample60_cam1_Sports2D\p1_sample60_cam1_Sports2D_px_person00.trc
DataRate	CameraRate	NumFrames	NumMarkers	Units	OrigDataRate	OrigDataStartFrame	OrigNumFrames
60	60	5	22	m	60	195	780
Frame#	Time	Hip			RHip			RKnee			RAnkle			RBigToe			RSmallToe			RHeel			LHip			LKnee			LAnkle			LBigToe			LSmallToe			LHeel			Neck			Head			Nose			RShoulder			RElbow			RWrist			LShoulder			LElbow			LWrist		
		X1	Y1	Z1	X2	Y2	Z2	X3	Y3	Z3	X4	Y4	Z4	X5	Y5	Z5	X6	Y6	Z6	X7	Y7	Z7	X8	Y8	Z8	X9	Y9	Z9	X10	Y10	Z10	X11	Y11	Z11	X12	Y12	Z12	X13	Y13	Z13	X14	Y14	Z14	X15	Y15	Z15	X16	Y16	Z16	X17	Y17	Z17	X18	Y18	Z18	X19	Y19	Z19	X20	Y20	Z20	X21	Y21	Z21	X22	Y22	Z22
195	3.25	312.9499526960112	481.1078864926293	0.0	286.22327754738575	482.15549234244713	0.0	286.71883192014326	630.6869433349898	0.0	279.94808355082074	779.0613985211713	0.0	323.31382306397376	823.9098119569168	0.0	300.62247341057287	830.3450270863923	0.0	270.9795251960356	793.6797334591479	0.0	338.94681336941966	480.8236775290381	0.0	338.86309495535403	623.5700650376756	0.0	317.0794045496183	745.9657598138137	0.0	341.54423468330856	800.7882265405367	0.0	346.68246975417566	790.2856407956286	0.0	305.80296782471714	759.258491593693	0.0	324.64577827400575	266.0312798354617	0.0	359.56033361032956	164.6210842744427	0.0	366.0355151948178	227.0126961157173	0.0	276.2525660174251	267.59342877995704	0.0	265.05494731672127	185.82043943963097	0.0	324.6385424061022	68.17218057358983	0.0	369.8774826514029	281.7994545944472	0.0	440.0948630745776	253.01177215650839	0.0	472.6638573956905	156.1033204044734	0.0
196	3.2666666666666666	312.8623416099218	475.978042104273	0.0	286.00735204556224	476.9256326345837	0.0	285.39756591784356	626.0014880801787	0.0	279.98290390949364	776.4322642190837	0.0	323.8240676057081	821.6485367459265	0.0	300.91588788101103	828.1093283322174	0.0	271.59229928458683	791.1161547203732	0.0	338.8544638940949	475.56388771590247	0.0	338.48582862571226	618.605787612255	0.0	317.14134961185823	742.3162908409225	0.0	341.8218767805325	798.1663158031303	0.0	347.0146818136194	787.60004412977	0.0	305.85708997788413	755.749535018517	0.0	324.5287744830409	261.18862593031633	0.0	359.6040173294191	159.14254847626418	0.0	366.3890873622477	222.13701513334328	0.0	276.3668163499378	262.3228961233619	0.0	265.9518071546722	178.27582314987131	0.0	326.04131427709603	60.91546666137823	0.0	369.6539087954112	277.0292106064849	0.0	440.695862570432	248.74189556449898	0.0	473.46833587571774	151.3893731237874	0.0
197	3.283333333333333	312.6595659566891	472.5588810211532	0.0	285.7014726286552	473.35499087929355	0.0	284.3586658771213	622.8295101958042	0.0	279.99024686460973	774.5222857778172	0.0	324.0988822191004	820.0687798746228	0.0	300.99733146673015	826.461305431865	0.0	272.151045460382	789.1043217106715	0.0	338.66731146414867	471.9566418079965	0.0	338.2257187625249	615.1813038675365	0.0	317.1935050811385	739.7224857693451	0.0	342.2236302678856	796.2817419675725	0.0	347.4624346747739	785.5880441561706	0.0	305.83215512209614	753.2576796699285	0.0	324.4986107001876	258.08246641672616	0.0	359.8610625714444	155.53608255661146	0.0	366.7248685477868	219.2202751627089	0.0	276.45728043757885	259.03439107757356	0.0	266.32351576695567	173.99756336399602	0.0	327.1250820661231	57.281243153021634	0.0	369.46286408299756	274.00438198300486	0.0	441.35875072831357	246.8494880536518	0.0	474.34128979246003	149.38885017727827	0.0
198	3.3	312.35743096260916	470.9273872646033	0.0	285.3288272668022	471.5219220048703	0.0	283.53712192125784	621.2504499436693	0.0	279.9563973966906	773.5079117016394	0.0	324.1376615944309	819.3189567982174	0.0	300.87497190794534	825.5701401034952	0.0	272.60990099806935	787.8437368954685	0.0	338.395403196701	470.0877092817234	0.0	338.0372659869542	613.3812525761335	0.0	317.25151806113536	738.342789436185	0.0	342.7392183436072	795.2727825005286	0.0	348.02694446428137	784.428408012677	0.0	305.74018422617434	751.9437490055241	0.0	324.5270767502753	256.77788976501677	0.0	360.2838076758356	153.87937640595027	0.0	367.00441797204144	218.31334620187394	0.0	276.5035891958986	257.78015079094746	0.0	266.227986116903	172.8816612083328	0.0	327.8746524086348	57.01683880879454	0.0	369.2984220802929	272.7696662681976	0.0	442.0862046649937	247.27978536616695	0.0	475.2567138298692	150.00599333031317	0.0
199	3.3166666666666664	311.95784480215013	471.10784735577397	0.0	284.89231332407593	471.4570598205752	0.0	282.8812086018901	621.2759991058075	0.0	279.86364521408666	773.5003331338637	0.0	323.95419858916085	819.4804810619141	0.0	300.57013621703777	825.5375749065671	0.0	272.9248805626727	787.4721842157574	0.0	338.03791783822066	469.99752127413944	0.0	337.89221125223105	613.2201712064588	0.0	317.3188410160419	738.2690570811529	0.0	343.33902096180975	795.2114118168466	0.0	348.6881834389779	784.2319200377049	0.0	305.59015375576615	751.9056899284952	0.0	324.5879428299804	257.29769685762744	0.0	360.83762837463644	154.21100689857596	0.0	367.20864367274623	219.41904311160695	0.0	276.4905425291474	258.56132379923855	0.0	265.72788997011855	174.8041180688499	0.0	328.281665272248	59.8777092808159	0.0	369.1518964972813	273.33638189914865	0.0	442.85704643748693	249.95711165620818	0.0	476.1778977034433	153.13889780999426	0.0
